<?xml version="1.0" encoding="UTF-8" standalone="no"?>
<!-- Created with Inkscape (http://www.inkscape.org/) -->

<svg
   width="1920"
   height="1237.2744"
   viewBox="0 0 508 327.36219"
   version="1.1"
   id="svg5"
   inkscape:version="1.1 (c4e8f9ed74, 2021-05-24)"
   sodipodi:docname="mockup.svg"
   xmlns:inkscape="http://www.inkscape.org/namespaces/inkscape"
   xmlns:sodipodi="http://sodipodi.sourceforge.net/DTD/sodipodi-0.dtd"
   xmlns="http://www.w3.org/2000/svg"
   xmlns:svg="http://www.w3.org/2000/svg">
  <sodipodi:namedview
     id="namedview7"
     pagecolor="#ffffff"
     bordercolor="#666666"
     borderopacity="1.0"
     inkscape:pageshadow="2"
     inkscape:pageopacity="0.0"
     inkscape:pagecheckerboard="0"
     inkscape:document-units="px"
     showgrid="false"
     inkscape:snap-page="true"
     inkscape:snap-global="false"
     inkscape:zoom="0.4295019"
     inkscape:cx="842.83679"
     inkscape:cy="711.28906"
     inkscape:window-width="1920"
     inkscape:window-height="1080"
     inkscape:window-x="1920"
     inkscape:window-y="0"
     inkscape:window-maximized="1"
     inkscape:current-layer="layer1"
     showguides="false"
     inkscape:guide-bbox="true"
     fit-margin-top="0"
     fit-margin-left="0"
     fit-margin-right="0"
     fit-margin-bottom="0">
    <sodipodi:guide
       position="249.16006,-10.659152"
       orientation="0,-1"
       id="guide269360" />
  </sodipodi:namedview>
  <defs
     id="defs2">
    <rect
       x="421.22427"
       y="812.77545"
       width="346.67078"
       height="91.576698"
       id="rect150613" />
    <rect
       x="549.52191"
       y="137.48755"
       width="749.78571"
       height="58.549446"
       id="rect4646" />
    <rect
       x="549.52191"
       y="137.48755"
       width="967.20752"
       height="158.43866"
       id="rect39430" />
    <rect
       x="549.52191"
       y="137.48755"
       width="381.38287"
       height="72.243202"
       id="rect59105" />
    <rect
       x="549.52191"
       y="137.48755"
       width="328.57172"
       height="101.8728"
       id="rect74105" />
    <rect
       x="549.52191"
       y="137.48755"
       width="336.80652"
       height="65.589813"
       id="rect82985" />
    <rect
       x="549.52191"
       y="137.48755"
       width="967.20752"
       height="158.43866"
       id="rect127488" />
    <rect
       x="549.52191"
       y="137.48755"
       width="967.20752"
       height="158.43866"
       id="rect197735" />
    <rect
       x="549.52191"
       y="137.48755"
       width="967.20752"
       height="158.43866"
       id="rect197823" />
    <rect
       x="549.52191"
       y="137.48755"
       width="967.20752"
       height="158.43866"
       id="rect216357" />
    <rect
       x="549.52191"
       y="137.48755"
       width="990.69757"
       height="90.67382"
       id="rect236154" />
    <rect
       x="549.52191"
       y="137.48755"
       width="990.69757"
       height="90.67382"
       id="rect249250" />
    <rect
       x="549.52191"
       y="137.48755"
       width="742.96118"
       height="87.182487"
       id="rect251130" />
    <rect
       x="549.52191"
       y="137.48755"
       width="990.69757"
       height="90.67382"
       id="rect269448" />
  </defs>
  <g
     inkscape:label="Layer 1"
     inkscape:groupmode="layer"
     id="layer1">
    <rect
       style="fill:#fef9f4;fill-opacity:1;stroke-width:0.499999;stroke-linecap:round;stroke-linejoin:round"
       id="rect926"
       width="508"
       height="327.36218"
       x="0"
       y="0" />
    <rect
       style="fill:#efdaca;fill-opacity:1;stroke-width:0.499998;stroke-linecap:round;stroke-linejoin:round"
       id="rect31920"
       width="508"
       height="73.880409"
       x="0"
       y="0" />
    <text
       xml:space="preserve"
       transform="matrix(0.3725901,0,0,0.3725901,-182.30498,-5.7103721)"
       id="text4644"
       style="font-style:normal;font-variant:normal;font-weight:normal;font-stretch:normal;font-size:40px;line-height:1.25;font-family:helvetica;-inkscape-font-specification:helvetica;white-space:pre;shape-inside:url(#rect4646);fill:#544138;fill-opacity:1;stroke-width:0.710119"><tspan
         x="549.52148"
         y="171.96828"
         id="tspan299996"><tspan
           style="font-family:C059;-inkscape-font-specification:C059"
           id="tspan299994">Kobo Highlights &amp; Notes</tspan></tspan></text>
    <text
       xml:space="preserve"
       transform="matrix(0.77967295,0,0,0.77967295,-406.22071,-95.142067)"
       id="text39428"
       style="font-style:normal;font-variant:normal;font-weight:normal;font-stretch:normal;font-size:40px;line-height:1.25;font-family:helvetica;-inkscape-font-specification:helvetica;white-space:pre;shape-inside:url(#rect39430);fill:#544138;fill-opacity:1;stroke-width:0.339351"><tspan
         x="549.52148"
         y="171.96828"
         id="tspan300000"><tspan
           style="font-weight:bold;font-family:C059;-inkscape-font-specification:'C059 Bold'"
           id="tspan299998">KoboHi</tspan></tspan></text>
    <text
       xml:space="preserve"
       transform="scale(0.26458333)"
       id="text150611"
       style="font-size:40px;line-height:1.25;font-family:serif;-inkscape-font-specification:serif;white-space:pre;shape-inside:url(#rect150613)" />
    <g
       id="g269442"
       transform="translate(-1.4879822,-24.762655)">
      <g
         id="g269407"
         transform="translate(3.4373962)">
        <path
           fill="currentColor"
           d="m 253.81448,261.62566 v -7.49653 h -11.02431 c -0.7331,0 -1.32291,0.5898 -1.32291,1.32292 v 25.57638 c 0,0.73311 0.58981,1.32291 1.32291,1.32291 H 261.311 c 0.73313,0 1.32293,-0.5898 1.32293,-1.32291 v -18.07986 h -7.49653 c -0.72761,0 -1.32292,-0.5953 -1.32292,-1.32291 z m 3.52777,13.00867 c 0,0.3638 -0.29765,0.66147 -0.66144,0.66147 h -9.26043 c -0.3638,0 -0.66146,-0.29767 -0.66146,-0.66147 v -0.44097 c 0,-0.3638 0.29766,-0.66146 0.66146,-0.66146 h 9.26043 c 0.36379,0 0.66144,0.29766 0.66144,0.66146 z m 0,-3.52777 c 0,0.36381 -0.29765,0.66145 -0.66144,0.66145 h -9.26043 c -0.3638,0 -0.66146,-0.29764 -0.66146,-0.66145 v -0.44097 c 0,-0.3638 0.29766,-0.66147 0.66146,-0.66147 h 9.26043 c 0.36379,0 0.66144,0.29767 0.66144,0.66147 z m 0,-3.96875 v 0.44098 c 0,0.36381 -0.29765,0.66146 -0.66144,0.66146 h -9.26043 c -0.3638,0 -0.66146,-0.29765 -0.66146,-0.66146 v -0.44098 c 0,-0.36381 0.29766,-0.66145 0.66146,-0.66145 h 9.26043 c 0.36379,0 0.66144,0.29764 0.66144,0.66145 z m 5.29168,-6.28936 v 0.33623 h -7.05556 v -7.05555 h 0.33624 c 0.35278,0 0.68902,0.13781 0.93707,0.38585 l 5.39639,5.40191 c 0.24804,0.24805 0.38586,0.5843 0.38586,0.93156 z"
           id="path49803"
           style="fill:#ddbea9;fill-opacity:1;stroke-width:0.264583" />
        <text
           xml:space="preserve"
           transform="matrix(0.32436689,0,0,0.32436689,20.514842,249.15311)"
           id="text74103"
           style="font-style:normal;font-variant:normal;font-weight:normal;font-stretch:normal;font-size:26.1021px;line-height:0.75;font-family:helvetica;-inkscape-font-specification:helvetica;white-space:pre;shape-inside:url(#rect74105);fill:#544138;fill-opacity:1;stroke-width:0.815692"
           x="247.40027"
           y="0"><tspan
             x="551.45304"
             y="155.66256"
             id="tspan300004"><tspan
               style="font-family:'Maven Pro';-inkscape-font-specification:'Maven Pro';text-align:center;text-anchor:middle"
               id="tspan300002">Pretty webpage for reading
</tspan></tspan><tspan
             x="550.93094"
             y="177.64775"
             id="tspan300008"><tspan
               style="font-family:'Maven Pro';-inkscape-font-specification:'Maven Pro';text-align:center;text-anchor:middle"
               id="tspan300006">on your computer or phone</tspan></tspan></text>
        <g
           id="g269353">
          <rect
             style="fill:#cb997e;fill-opacity:1;stroke-width:0.499999;stroke-linecap:round;stroke-linejoin:round"
             id="rect197729"
             width="107.53704"
             height="23.820684"
             x="198.28207"
             y="314.86005" />
          <text
             xml:space="preserve"
             transform="matrix(0.32436689,0,0,0.32436689,26.805444,277.72106)"
             id="text197733"
             style="font-style:normal;font-variant:normal;font-weight:normal;font-stretch:normal;font-size:30.4525px;line-height:0.75;font-family:helvetica;-inkscape-font-specification:helvetica;white-space:pre;shape-inside:url(#rect197735);fill:#ffffff;fill-opacity:1;stroke-width:0.815692"><tspan
               x="549.52148"
               y="158.69164"
               id="tspan300012"><tspan
                 style="font-weight:bold;font-family:'Maven Pro';-inkscape-font-specification:'Maven Pro Bold'"
                 id="tspan300010">Download Webpage</tspan></tspan></text>
        </g>
      </g>
      <g
         id="g269416">
        <path
           fill="currentColor"
           d="m 100.63715,273.15394 v -15.87502 c 0,-0.62839 -0.50554,-1.13393 -1.133917,-1.13393 H 84.0062 c -2.504097,0 -4.535713,2.03163 -4.535713,4.53572 v 15.11905 c 0,2.50411 2.031616,4.53572 4.535713,4.53572 h 15.497033 c 0.628377,0 1.133917,-0.50554 1.133917,-1.13392 v -0.75596 c 0,-0.35435 -0.16536,-0.67564 -0.4205,-0.88352 -0.19843,-0.7276 -0.19843,-2.80175 0,-3.52936 0.25514,-0.20316 0.4205,-0.52443 0.4205,-0.87878 z M 85.518104,262.4761 c 0,-0.15591 0.127568,-0.28348 0.28348,-0.28348 h 10.016379 c 0.15591,0 0.28347,0.12757 0.28347,0.28348 v 0.94494 c 0,0.15592 -0.12756,0.28348 -0.28347,0.28348 H 85.801584 c -0.155912,0 -0.28348,-0.12756 -0.28348,-0.28348 z m 0,3.02381 c 0,-0.15591 0.127568,-0.28349 0.28348,-0.28349 h 10.016379 c 0.15591,0 0.28347,0.12758 0.28347,0.28349 v 0.94494 c 0,0.15592 -0.12756,0.28349 -0.28347,0.28349 H 85.801584 c -0.155912,0 -0.28348,-0.12757 -0.28348,-0.28349 z m 11.972399,11.81176 H 84.0062 c -0.836272,0 -1.511912,-0.67563 -1.511912,-1.51191 0,-0.83154 0.680368,-1.5119 1.511912,-1.5119 h 13.484303 c -0.0898,0.80793 -0.0898,2.21589 0,3.02381 z"
           id="path49794"
           style="fill:#ddbea9;fill-opacity:1;stroke-width:0.264583" />
        <text
           xml:space="preserve"
           transform="matrix(0.32436689,0,0,0.32436689,-150.06791,249.15311)"
           id="text59103"
           style="font-style:normal;font-variant:normal;font-weight:normal;font-stretch:normal;font-size:26.1021px;line-height:0.75;font-family:helvetica;-inkscape-font-specification:helvetica;text-align:center;white-space:pre;shape-inside:url(#rect59105);fill:#544138;fill-opacity:1;stroke-width:0.815692"
           x="0"
           y="0"><tspan
             x="635.087"
             y="155.66256"
             id="tspan300016"><tspan
               style="font-family:'Maven Pro';-inkscape-font-specification:'Maven Pro'"
               id="tspan300014">Ebook for reading
</tspan></tspan><tspan
             x="661.0324"
             y="177.64775"
             id="tspan300020"><tspan
               style="font-family:'Maven Pro';-inkscape-font-specification:'Maven Pro'"
               id="tspan300018">on your Kobo</tspan></tspan></text>
        <g
           id="g269348"
           transform="translate(-0.01362153)">
          <rect
             style="fill:#cb997e;fill-opacity:1;stroke-width:0.499999;stroke-linecap:round;stroke-linejoin:round"
             id="rect197817"
             width="107.53704"
             height="23.820684"
             x="36.29892"
             y="314.86005" />
          <text
             xml:space="preserve"
             transform="matrix(0.32436689,0,0,0.32436689,-125.03308,277.92849)"
             id="text197821"
             style="font-style:normal;font-variant:normal;font-weight:normal;font-stretch:normal;font-size:30.4525px;line-height:0.75;font-family:helvetica;-inkscape-font-specification:helvetica;white-space:pre;shape-inside:url(#rect197823);fill:#ffffff;fill-opacity:1;stroke-width:0.815692"><tspan
               x="549.52148"
               y="158.69164"
               id="tspan300024"><tspan
                 style="font-weight:bold;font-family:'Maven Pro';-inkscape-font-specification:'Maven Pro Bold'"
                 id="tspan300022">Download Epub</tspan></tspan></text>
        </g>
      </g>
      <g
         id="g269398">
        <path
           fill="currentColor"
           d="m 420.3654,268.24575 c -0.2756,-0.88195 -0.27008,-2.5852 -0.11024,-2.5852 0.46302,0 0.41892,2.03399 0.11024,2.5852 z m -0.0937,2.60173 c -0.42442,1.11346 -0.95359,2.38676 -1.56544,3.45612 1.00872,-0.38585 2.14973,-0.94808 3.46714,-1.20715 -0.70004,-0.52917 -1.37253,-1.28985 -1.9017,-2.24897 z m -5.18692,6.87917 c 0,0.0441 0.7276,-0.29765 1.92374,-2.21588 -0.36932,0.34727 -1.60404,1.35047 -1.92374,2.21588 z m 8.92416,-14.77808 h 7.49654 v 18.07986 c 0,0.73311 -0.58981,1.32291 -1.32293,1.32291 h -18.52082 c -0.73313,0 -1.32292,-0.5898 -1.32292,-1.32291 v -25.57638 c 0,-0.73312 0.58979,-1.32291 1.32292,-1.32291 h 11.0243 v 7.49651 c 0,0.72761 0.59531,1.32292 1.32291,1.32292 z m -0.44097,9.46989 c -1.10243,-0.67249 -1.83555,-1.59854 -2.35368,-2.96556 0.24805,-1.01974 0.63941,-2.56865 0.34175,-3.53879 -0.25907,-1.62057 -2.33715,-1.46072 -2.63482,-0.37482 -0.2756,1.00873 -0.0221,2.43086 0.44649,4.24435 -0.63941,1.52136 -1.58199,3.56085 -2.24895,4.72942 -0.006,0 -0.006,0.006 -0.0111,0.006 -1.49379,0.76619 -4.05694,2.45291 -3.00413,3.74826 0.30869,0.38035 0.88196,0.55122 1.18512,0.55122 0.98668,0 1.96783,-0.99218 3.36793,-3.40651 1.42213,-0.46853 2.98206,-1.05281 4.35458,-1.27881 1.19616,0.65044 2.59624,1.07487 3.52779,1.07487 1.60955,0 1.7198,-1.7639 1.0859,-2.39227 -0.7662,-0.74966 -2.9931,-0.53469 -4.05696,-0.39689 z m 7.55166,-12.50157 -5.40193,-5.40191 c -0.24804,-0.24804 -0.58428,-0.38584 -0.93706,-0.38584 h -0.33072 v 7.05555 h 7.05556 v -0.33624 c 0,-0.34727 -0.13781,-0.68351 -0.38585,-0.93156 z m -4.08451,14.07253 c 0.22599,-0.14884 -0.13781,-0.65595 -2.35921,-0.49611 2.04502,0.87094 2.35921,0.49611 2.35921,0.49611 z"
           id="path49812"
           style="fill:#ddbea9;fill-opacity:1;stroke-width:0.264583" />
        <text
           xml:space="preserve"
           transform="matrix(0.32436689,0,0,0.32436689,196.62979,249.15311)"
           id="text82983"
           style="font-style:normal;font-variant:normal;font-weight:normal;font-stretch:normal;font-size:26.1021px;line-height:0.75;font-family:helvetica;-inkscape-font-specification:helvetica;white-space:pre;shape-inside:url(#rect82985);fill:#544138;fill-opacity:1;stroke-width:0.815692"><tspan
             x="549.52148"
             y="155.66256"
             id="tspan300028"><tspan
               style="font-family:'Maven Pro';-inkscape-font-specification:'Maven Pro'"
               id="tspan300026">PDF for reading on your </tspan></tspan><tspan
             x="549.52148"
             y="177.64775"
             id="tspan300032"><tspan
               style="font-family:'Maven Pro';-inkscape-font-specification:'Maven Pro'"
               id="tspan300030">computer or phone</tspan></tspan></text>
        <g
           id="g269358">
          <rect
             style="fill:#cb997e;fill-opacity:1;stroke-width:0.499999;stroke-linecap:round;stroke-linejoin:round"
             id="rect216351"
             width="107.53704"
             height="23.820684"
             x="367.15363"
             y="314.86005" />
          <text
             xml:space="preserve"
             transform="matrix(0.32436689,0,0,0.32436689,208.08859,278.74834)"
             id="text216355"
             style="font-style:normal;font-variant:normal;font-weight:normal;font-stretch:normal;font-size:30.4525px;line-height:0.75;font-family:helvetica;-inkscape-font-specification:helvetica;white-space:pre;shape-inside:url(#rect216357);fill:#ffffff;fill-opacity:1;stroke-width:0.815692"><tspan
               x="549.52148"
               y="158.69164"
               id="tspan300036"><tspan
                 style="font-weight:bold;font-family:'Maven Pro';-inkscape-font-specification:'Maven Pro Bold'"
                 id="tspan300034">Download PDF</tspan></tspan></text>
        </g>
      </g>
    </g>
    <text
       xml:space="preserve"
       transform="matrix(0.3725901,0,0,0.3725901,-122.75266,55.262135)"
       id="text236152"
       style="font-style:normal;font-variant:normal;font-weight:normal;font-stretch:normal;font-size:39.7667px;line-height:1.25;font-family:helvetica;-inkscape-font-specification:helvetica;white-space:pre;shape-inside:url(#rect236154);fill:#544138;fill-opacity:1;stroke-width:0.710119"><tspan
         x="549.52148"
         y="171.76718"
         id="tspan300042"><tspan
           style="font-family:C059;-inkscape-font-specification:C059"
           id="tspan300038">Bundle all your highlights and notes in </tspan><tspan
           style="font-weight:bold;font-family:C059;-inkscape-font-specification:'C059 Bold'"
           id="tspan300040">one place</tspan></tspan></text>
    <rect
       style="fill:#ffffff;fill-opacity:1;stroke-width:0.499999;stroke-linecap:round;stroke-linejoin:round"
       id="rect248162"
       width="102.09986"
       height="15.506928"
       x="202.95007"
       y="195.88141" />
    <text
       xml:space="preserve"
       transform="matrix(0.32922581,0,0,0.32922581,50.714396,153.37269)"
       id="text249248"
       style="font-style:normal;font-variant:normal;font-weight:normal;font-stretch:normal;font-size:30.2984px;line-height:1.25;font-family:helvetica;-inkscape-font-specification:helvetica;white-space:pre;shape-inside:url(#rect249250);fill:#333333;fill-opacity:1;stroke-width:0.803653"><tspan
         x="549.52148"
         y="163.6055"
         id="tspan300046"><tspan
           style="font-family:C059;-inkscape-font-specification:C059"
           id="tspan300044">Select file</tspan></tspan></text>
    <text
       xml:space="preserve"
       transform="matrix(0.3725901,0,0,0.3725901,-79.008875,113.24854)"
       id="text251128"
       style="font-style:normal;font-variant:normal;font-weight:normal;font-stretch:normal;font-size:26.5111px;line-height:1.25;font-family:helvetica;-inkscape-font-specification:helvetica;white-space:pre;shape-inside:url(#rect251130);fill:#544138;fill-opacity:1;stroke-width:0.710119"><tspan
         x="549.52148"
         y="160.34085"
         id="tspan300050"><tspan
           style="font-family:C059;-inkscape-font-specification:C059"
           id="tspan300048">Upload the KoboReader.sqlite file from your Kobo device and </tspan></tspan><tspan
         x="549.52148"
         y="193.69182"
         id="tspan300054"><tspan
           style="font-family:C059;-inkscape-font-specification:C059"
           id="tspan300052">download your preffered bundle</tspan></tspan></text>
    <text
       xml:space="preserve"
       transform="matrix(0.3725901,0,0,0.3725901,-79.008875,196.36606)"
       id="text269446"
       style="font-style:normal;font-variant:normal;font-weight:normal;font-stretch:normal;font-size:26.5111px;line-height:1.25;font-family:helvetica;-inkscape-font-specification:helvetica;white-space:pre;shape-inside:url(#rect269448);fill:#544138;fill-opacity:1;stroke-width:0.710119" />
  </g>
</svg>
